<svg width="500" height="426" viewBox="0 0 500 426" fill="none" xmlns="http://www.w3.org/2000/svg">
<path fill-rule="evenodd" clip-rule="evenodd" d="M44.0346 0.932188C45.5155 0.864469 47.0021 0.83032 48.494 0.83032C49.9859 0.83032 51.4723 0.864469 52.9532 0.932188C54.4341 0.864469 55.9207 0.83032 57.4126 0.83032C136.219 0.830316 200.105 96.0078 200.105 213.415C200.105 330.823 136.219 426 57.4126 426C55.9207 426 54.4342 425.966 52.9533 425.898C51.4725 425.966 49.9859 426 48.494 426C47.0022 426 45.5156 425.966 44.0347 425.898C42.5539 425.966 41.0673 426 39.5755 426C38.084 426 36.5978 425.966 35.1174 425.898C33.6369 425.966 32.1508 426 30.6593 426C29.167 426 27.6801 425.966 26.1988 425.898C24.7175 425.966 23.2306 426 21.7383 426C20.2468 426 18.7607 425.966 17.2802 425.898C15.7998 425.966 14.3136 426 12.8221 426C11.3303 426 9.84372 425.966 8.36285 425.898C7.82759 425.923 7.29159 425.943 6.75486 425.958C18.1386 416.253 28.6576 404.563 38.0979 391.205C47.3301 382.78 55.929 372.686 63.7058 361.1C88.8973 323.569 104.677 271.366 104.677 213.415C104.677 155.464 88.8973 103.261 63.7057 65.7305C54.0047 51.2777 43.0243 39.146 31.131 29.681C73.5201 66.5374 102.003 135.021 102.003 213.415C102.003 286.655 77.1422 351.245 39.3072 389.476C47.1315 378.175 54.1935 365.716 60.3678 352.284C82.2858 315.593 95.7561 266.957 95.7561 213.415C95.7561 155.464 79.9763 103.261 54.7847 65.7305C52.6217 62.5081 50.3951 59.401 48.109 56.4132C34.6848 33.743 18.4488 14.8376 0.210919 0.900146C1.438 0.853729 2.66894 0.830322 3.90354 0.830322C5.39547 0.830322 6.88179 0.864471 8.3627 0.93219C9.84361 0.864471 11.3302 0.830322 12.8221 0.830322C14.3137 0.830322 15.7996 0.86441 17.2801 0.932098C18.7606 0.86441 20.2467 0.830321 21.7383 0.830321C23.2306 0.830321 24.7174 0.86447 26.1987 0.932219C27.68 0.86447 29.167 0.830321 30.6593 0.830321C32.1508 0.830321 33.6367 0.864409 35.1172 0.932097C36.5977 0.864409 38.0839 0.830321 39.5754 0.830321C41.0674 0.83032 42.5537 0.86447 44.0346 0.932188ZM40.1048 29.7269C82.4647 66.5943 110.924 135.053 110.924 213.415C110.924 291.777 82.4647 360.236 40.1048 397.103C51.9759 387.645 62.9365 375.529 72.6219 361.1C97.8135 323.569 113.593 271.366 113.593 213.415C113.593 155.464 97.8134 103.261 72.6219 65.7305C62.9365 51.301 51.9759 39.1851 40.1048 29.7269ZM81.5405 65.7305C71.8472 51.2893 60.8767 39.1655 48.9944 29.7038C91.3689 66.5658 119.84 135.037 119.84 213.415C119.84 291.793 91.3691 360.264 48.9946 397.126C60.8768 387.665 71.8472 375.541 81.5405 361.1C106.732 323.569 122.512 271.366 122.512 213.415C122.512 155.464 106.732 103.261 81.5405 65.7305ZM57.913 29.7039C69.7953 39.1655 80.7658 51.2893 90.459 65.7305C115.651 103.261 131.43 155.464 131.43 213.415C131.43 271.366 115.651 323.569 90.4591 361.1C80.7659 375.541 69.7954 387.665 57.9133 397.126C100.288 360.264 128.758 291.793 128.758 213.415C128.758 135.037 100.287 66.5658 57.913 29.7039ZM99.3776 65.7305C89.6843 51.2892 78.7138 39.1654 66.8315 29.7038C109.206 66.5657 137.677 135.037 137.677 213.415C137.677 291.793 109.206 360.264 66.8319 397.126C78.714 387.665 89.6844 375.541 99.3776 361.1C124.569 323.569 140.349 271.366 140.349 213.415C140.349 155.464 124.569 103.261 99.3776 65.7305ZM75.7503 29.7039C87.6325 39.1656 98.603 51.2894 108.296 65.7305C133.488 103.261 149.268 155.464 149.268 213.415C149.268 271.366 133.488 323.569 108.296 361.1C98.6031 375.541 87.6327 387.665 75.7506 397.126C118.125 360.264 146.596 291.793 146.596 213.415C146.596 135.037 118.125 66.5659 75.7503 29.7039ZM117.212 65.7305C107.527 51.3012 96.5666 39.1854 84.6955 29.7271C127.055 66.5946 155.514 135.054 155.514 213.415C155.514 291.777 127.055 360.236 84.6955 397.103C96.5666 387.645 107.527 375.529 117.212 361.1C142.404 323.569 158.184 271.366 158.184 213.415C158.184 155.464 142.404 103.261 117.212 65.7305ZM93.559 29.6812C105.452 39.1462 116.432 51.2779 126.133 65.7305C151.325 103.261 167.105 155.464 167.105 213.415C167.105 271.366 151.325 323.569 126.133 361.1C116.432 375.552 105.452 387.684 93.5591 397.149C135.948 360.292 164.43 291.809 164.43 213.415C164.43 135.021 135.948 66.5378 93.559 29.6812ZM135.05 65.7305C125.364 51.3012 114.404 39.1854 102.533 29.7271C144.892 66.5946 173.351 135.054 173.351 213.415C173.351 291.777 144.892 360.236 102.532 397.103C114.404 387.645 125.364 375.529 135.05 361.1C160.241 323.569 176.021 271.366 176.021 213.415C176.021 155.464 160.241 103.261 135.05 65.7305ZM111.423 29.7042C153.797 66.5662 182.268 135.037 182.268 213.415C182.268 291.793 153.797 360.264 111.422 397.126C123.304 387.665 134.275 375.541 143.968 361.1C169.16 323.569 184.939 271.366 184.939 213.415C184.939 155.464 169.16 103.261 143.968 65.7305C134.275 51.2895 123.305 39.1658 111.423 29.7042ZM152.887 361.1C143.193 375.541 132.223 387.665 120.341 397.126C162.715 360.264 191.186 291.793 191.186 213.415C191.186 135.037 162.715 66.5658 120.341 29.7038C132.223 39.1655 143.193 51.2893 152.887 65.7305C178.078 103.261 193.858 155.464 193.858 213.415C193.858 271.366 178.078 323.569 152.887 361.1Z" fill="url(#paint0_linear_2284_19251)"/>
<path fill-rule="evenodd" clip-rule="evenodd" d="M456.118 425.898C454.637 425.966 453.15 426 451.659 426C450.167 426 448.68 425.966 447.199 425.898C445.718 425.966 444.232 426 442.74 426C363.933 426 300.048 330.822 300.048 213.415C300.048 96.0075 363.933 0.830075 442.74 0.830072C444.232 0.830072 445.718 0.864182 447.199 0.931907C448.68 0.864182 450.167 0.830072 451.659 0.830071C453.15 0.830071 454.637 0.864181 456.118 0.931906C457.599 0.864181 459.085 0.830071 460.577 0.830071C462.069 0.830071 463.555 0.864162 465.035 0.93185C466.516 0.864162 468.002 0.830071 469.493 0.830071C470.986 0.830071 472.473 0.864199 473.954 0.931961C475.435 0.864199 476.922 0.83007 478.414 0.83007C479.906 0.83007 481.392 0.864161 482.872 0.931849C484.353 0.864161 485.839 0.83007 487.33 0.83007C488.822 0.83007 490.309 0.86418 491.79 0.931905C492.325 0.907425 492.861 0.887338 493.398 0.871665C482.014 10.5767 471.495 22.2672 462.055 35.6253C452.822 44.05 444.224 54.1443 436.447 65.7303C411.255 103.261 395.475 155.464 395.475 213.415C395.475 271.366 411.255 323.569 436.447 361.1C446.148 375.552 457.128 387.684 469.022 397.149C426.633 360.293 398.15 291.809 398.15 213.415C398.15 140.175 423.01 75.585 460.845 37.3541C453.021 48.6549 445.959 61.1145 439.785 74.5465C417.867 111.237 404.396 159.873 404.397 213.415C404.397 271.366 420.176 323.569 445.368 361.1C447.531 364.322 449.757 367.429 452.044 370.417C465.468 393.087 481.704 411.992 499.942 425.93C498.715 425.976 497.484 426 496.249 426C494.757 426 493.271 425.966 491.79 425.898C490.309 425.966 488.822 426 487.33 426C485.839 426 484.353 425.966 482.873 425.898C481.392 425.966 479.906 426 478.414 426C476.922 426 475.435 425.966 473.954 425.898C472.473 425.966 470.986 426 469.493 426C468.002 426 466.516 425.966 465.035 425.898C463.555 425.966 462.069 426 460.577 426C459.085 426 457.599 425.966 456.118 425.898ZM460.048 397.103C417.688 360.236 389.229 291.777 389.229 213.415C389.229 135.053 417.688 66.594 460.048 29.7267C448.177 39.1849 437.216 51.3008 427.531 65.7303C402.339 103.261 386.559 155.464 386.559 213.415C386.559 271.366 402.339 323.569 427.531 361.1C437.216 375.529 448.177 387.645 460.048 397.103ZM418.612 361.1C428.305 375.541 439.276 387.665 451.158 397.126C408.784 360.264 380.313 291.793 380.313 213.415C380.313 135.037 408.783 66.5657 451.158 29.7037C439.276 39.1654 428.305 51.2892 418.612 65.7303C393.421 103.261 377.641 155.464 377.641 213.415C377.641 271.366 393.421 323.569 418.612 361.1ZM442.24 397.126C430.357 387.665 419.387 375.541 409.694 361.1C384.502 323.569 368.722 271.366 368.722 213.415C368.722 155.464 384.502 103.261 409.693 65.7303C419.387 51.2892 430.357 39.1654 442.239 29.7038C399.865 66.5657 371.394 135.037 371.394 213.415C371.394 291.793 399.865 360.264 442.24 397.126ZM400.775 361.1C410.468 375.541 421.439 387.665 433.321 397.126C390.947 360.264 362.476 291.793 362.475 213.415C362.475 135.037 390.946 66.5658 433.321 29.7038C421.439 39.1654 410.468 51.2892 400.775 65.7303C375.583 103.261 359.804 155.464 359.804 213.415C359.804 271.366 375.583 323.569 400.775 361.1ZM424.402 397.126C412.52 387.665 401.55 375.541 391.856 361.1C366.665 323.569 350.885 271.366 350.885 213.415C350.885 155.464 366.665 103.261 391.856 65.7303C401.549 51.2893 412.52 39.1656 424.402 29.704C382.028 66.5659 353.557 135.037 353.557 213.415C353.557 291.793 382.028 360.264 424.402 397.126ZM382.94 361.1C392.626 375.529 403.586 387.645 415.457 397.103C373.097 360.236 344.638 291.776 344.638 213.415C344.638 135.053 373.097 66.5943 415.457 29.7269C403.586 39.1851 392.626 51.3009 382.94 65.7303C357.749 103.261 341.969 155.464 341.969 213.415C341.969 271.366 357.749 323.569 382.94 361.1ZM406.594 397.149C394.7 387.684 383.72 375.552 374.019 361.1C348.828 323.569 333.048 271.366 333.048 213.415C333.048 155.464 348.828 103.261 374.019 65.7303C383.72 51.2776 394.7 39.146 406.593 29.6811C364.205 66.5376 335.722 135.021 335.722 213.415C335.722 291.809 364.205 360.292 406.594 397.149ZM365.103 361.1C374.788 375.529 385.749 387.645 397.62 397.103C355.26 360.236 326.801 291.777 326.801 213.415C326.801 135.053 355.26 66.5941 397.62 29.7267C385.749 39.185 374.788 51.3008 365.103 65.7303C339.911 103.261 324.132 155.464 324.132 213.415C324.132 271.366 339.911 323.569 365.103 361.1ZM388.73 397.126C346.356 360.264 317.885 291.793 317.885 213.415C317.885 135.037 346.356 66.5656 388.73 29.7037C376.848 39.1654 365.878 51.2892 356.184 65.7303C330.993 103.261 315.213 155.464 315.213 213.415C315.213 271.366 330.993 323.569 356.184 361.1C365.878 375.541 376.848 387.664 388.73 397.126ZM347.266 65.7303C356.959 51.2891 367.93 39.1653 379.812 29.7037C337.437 66.5656 308.966 135.037 308.966 213.415C308.966 291.793 337.437 360.264 379.812 397.126C367.93 387.665 356.959 375.541 347.266 361.1C322.074 323.569 306.295 271.366 306.295 213.415C306.295 155.464 322.074 103.261 347.266 65.7303Z" fill="url(#paint1_linear_2284_19251)"/>
<path fill-rule="evenodd" clip-rule="evenodd" d="M0.330661 388.715C0.251072 387.455 0.210943 386.19 0.210943 384.921C0.210943 383.652 0.251071 382.387 0.330661 381.127C0.251071 379.867 0.210943 378.602 0.210943 377.333C0.21094 310.285 112.08 255.932 250.078 255.932C388.075 255.932 499.944 310.285 499.944 377.333C499.944 378.602 499.904 379.867 499.825 381.127C499.904 382.387 499.944 383.652 499.944 384.921C499.944 386.19 499.904 387.455 499.825 388.715C499.904 389.975 499.944 391.239 499.944 392.509C499.944 393.778 499.904 395.042 499.825 396.302C499.904 397.561 499.944 398.826 499.944 400.095C499.944 401.364 499.904 402.629 499.825 403.889C499.904 405.15 499.944 406.415 499.944 407.684C499.944 408.953 499.904 410.218 499.825 411.477C499.904 412.737 499.944 414.001 499.944 415.27C499.944 416.54 499.904 417.804 499.825 419.064C499.853 419.52 499.877 419.976 499.896 420.432C488.489 410.747 474.748 401.798 459.047 393.766C449.145 385.911 437.28 378.595 423.662 371.979C379.55 350.546 318.191 337.121 250.078 337.121C181.964 337.121 120.606 350.546 76.493 371.979C59.5055 380.232 45.2462 389.574 34.1213 399.693C77.4414 363.629 157.935 339.396 250.078 339.396C336.162 339.396 412.079 360.547 457.015 392.737C443.732 386.08 429.088 380.072 413.3 374.819C370.175 356.171 313.01 344.711 250.078 344.711C181.964 344.711 120.606 358.136 76.493 379.569C72.7054 381.409 69.0535 383.303 65.5416 385.248C38.8957 396.67 16.6748 410.483 0.293013 426C0.238444 424.956 0.210945 423.909 0.210945 422.858C0.210945 421.589 0.251073 420.324 0.330662 419.064C0.251073 417.804 0.210945 416.54 0.210944 415.27C0.210944 414.001 0.251025 412.737 0.330567 411.477C0.251025 410.218 0.210944 408.953 0.210944 407.684C0.210944 406.415 0.251072 405.15 0.330709 403.89C0.251072 402.629 0.210944 401.364 0.210944 400.095C0.210944 398.826 0.251024 397.561 0.330566 396.302C0.251024 395.042 0.210944 393.778 0.210943 392.509C0.210943 391.239 0.251072 389.975 0.330661 388.715ZM34.1752 392.058C77.5082 356.019 157.973 331.806 250.078 331.806C342.182 331.806 422.647 356.019 465.98 392.058C454.863 381.958 440.622 372.633 423.662 364.393C379.55 342.96 318.191 329.535 250.078 329.535C181.964 329.535 120.606 342.96 76.493 364.393C59.5329 372.633 45.2922 381.959 34.1752 392.058ZM76.493 356.805C59.5192 365.052 45.2691 374.386 34.1481 384.495C77.4747 348.443 157.954 324.22 250.078 324.22C342.201 324.22 422.681 348.443 466.007 384.495C454.886 374.386 440.636 365.052 423.662 356.805C379.55 335.372 318.191 321.947 250.078 321.947C181.964 321.947 120.606 335.372 76.493 356.805ZM34.1482 376.907C45.2692 366.798 59.5192 357.464 76.493 349.217C120.606 327.785 181.964 314.359 250.078 314.359C318.191 314.359 379.55 327.785 423.662 349.217C440.636 357.464 454.886 366.798 466.007 376.907C422.68 340.855 342.201 316.632 250.078 316.632C157.954 316.632 77.4748 340.855 34.1482 376.907ZM76.493 341.629C59.5191 349.876 45.2691 359.21 34.148 369.32C77.4746 333.268 157.954 309.045 250.078 309.045C342.201 309.045 422.68 333.267 466.007 369.319C454.886 359.21 440.636 349.876 423.662 341.629C379.55 320.197 318.191 306.771 250.078 306.771C181.964 306.771 120.606 320.197 76.493 341.629ZM34.1482 361.731C45.2692 351.622 59.5192 342.289 76.493 334.042C120.606 312.609 181.964 299.183 250.078 299.183C318.191 299.183 379.55 312.609 423.662 334.042C440.636 342.288 454.886 351.622 466.007 361.731C422.68 325.679 342.201 301.457 250.078 301.457C157.954 301.457 77.4748 325.68 34.1482 361.731ZM76.493 326.456C59.5331 334.696 45.2925 344.021 34.1755 354.121C77.5086 318.082 157.974 293.869 250.078 293.869C342.182 293.869 422.647 318.082 465.98 354.121C454.863 344.021 440.622 334.696 423.662 326.456C379.55 305.023 318.191 291.598 250.078 291.598C181.964 291.598 120.606 305.023 76.493 326.456ZM34.1216 346.58C45.2464 336.461 59.5057 327.119 76.493 318.866C120.606 297.433 181.964 284.008 250.078 284.008C318.191 284.008 379.55 297.433 423.662 318.866C440.65 327.119 454.909 336.461 466.034 346.58C422.714 310.516 342.22 286.283 250.078 286.283C157.935 286.283 77.4418 310.516 34.1216 346.58ZM76.493 311.28C59.5331 319.52 45.2925 328.845 34.1755 338.945C77.5086 302.906 157.973 278.693 250.078 278.693C342.182 278.693 422.647 302.906 465.98 338.945C454.863 328.845 440.622 319.52 423.662 311.28C379.55 289.847 318.191 276.422 250.078 276.422C181.964 276.422 120.606 289.847 76.493 311.28ZM34.1486 331.382C77.4752 295.33 157.954 271.107 250.078 271.107C342.201 271.107 422.681 295.33 466.007 331.382C454.886 321.273 440.636 311.939 423.662 303.692C379.55 282.259 318.191 268.834 250.078 268.834C181.964 268.834 120.606 282.259 76.493 303.692C59.5194 311.939 45.2695 321.273 34.1486 331.382ZM423.662 296.104C440.636 304.351 454.886 313.685 466.007 323.794C422.681 287.742 342.201 263.519 250.078 263.519C157.954 263.519 77.4747 287.742 34.1481 323.794C45.2691 313.685 59.5192 304.351 76.493 296.104C120.606 274.672 181.964 261.246 250.078 261.246C318.191 261.246 379.55 274.672 423.662 296.104Z" fill="url(#paint2_linear_2284_19251)"/>
<path fill-rule="evenodd" clip-rule="evenodd" d="M0.330657 38.1149C0.251067 39.3749 0.210939 40.6397 0.210939 41.909C0.210939 43.1783 0.251068 44.4429 0.330657 45.7028C0.251068 46.9627 0.21094 48.2275 0.21094 49.4968C0.210943 116.545 112.08 170.898 250.078 170.898C388.075 170.898 499.944 116.545 499.944 49.4968C499.944 48.2275 499.904 46.9628 499.825 45.7029C499.904 44.443 499.944 43.1782 499.944 41.909C499.944 40.6397 499.904 39.3749 499.825 38.115C499.904 36.8551 499.944 35.5904 499.944 34.3211C499.944 33.0522 499.904 31.7878 499.825 30.5282C499.904 29.2686 499.944 28.0042 499.944 26.7353C499.944 25.4657 499.904 24.2006 499.825 22.9403C499.904 21.6801 499.944 20.415 499.944 19.1454C499.944 17.8764 499.904 16.612 499.825 15.3525C499.904 14.0929 499.944 12.8285 499.944 11.5596C499.944 10.2903 499.904 9.02555 499.825 7.76565C499.853 7.31025 499.877 6.85422 499.896 6.39758C488.488 16.0828 474.748 25.0322 459.047 33.064C449.145 40.9187 437.28 48.2346 423.662 54.851C379.55 76.2838 318.191 89.7091 250.078 89.7091C181.964 89.7091 120.606 76.2838 76.493 54.851C59.5055 46.5974 45.2462 37.2554 34.1213 27.1367C77.4414 63.201 157.935 87.4338 250.078 87.4338C336.162 87.4338 412.079 66.2826 457.015 34.0929C443.732 40.7497 429.088 46.758 413.3 52.0111C370.175 70.6588 313.01 82.1192 250.078 82.1192C181.964 82.1192 120.606 68.6939 76.493 47.2611C72.7054 45.4208 69.0535 43.5264 65.5416 41.5814C38.8957 30.1602 16.6748 16.3467 0.293005 0.830078C0.238436 1.87407 0.210938 2.92135 0.210938 3.97174C0.210938 5.24106 0.251066 6.50561 0.330655 7.76556C0.251066 9.0255 0.210938 10.2903 0.210938 11.5596C0.210938 12.8286 0.251019 14.0928 0.33056 15.3524C0.251019 16.612 0.210938 17.8764 0.210938 19.1454C0.210938 20.4151 0.251067 21.68 0.330704 22.9403C0.251067 24.2005 0.210939 25.4657 0.210939 26.7353C0.210939 28.0043 0.251019 29.2685 0.330561 30.5281C0.251019 31.7877 0.210939 33.0521 0.210939 34.3211C0.210939 35.5904 0.251067 36.855 0.330657 38.1149ZM34.1752 34.7715C77.5082 70.811 157.973 95.0237 250.078 95.0237C342.182 95.0237 422.647 70.811 465.98 34.7715C454.863 44.8714 440.622 54.1965 423.662 62.4368C379.55 83.8696 318.191 97.2949 250.078 97.2949C181.964 97.2949 120.606 83.8696 76.493 62.4368C59.5329 54.1965 45.2922 44.8713 34.1752 34.7715ZM76.493 70.0246C59.5192 61.7777 45.2691 52.4441 34.1481 42.3347C77.4747 78.3866 157.954 102.61 250.078 102.61C342.201 102.61 422.681 78.3867 466.007 42.3349C454.886 52.4441 440.636 61.7777 423.662 70.0246C379.55 91.4574 318.191 104.883 250.078 104.883C181.964 104.883 120.606 91.4574 76.493 70.0246ZM34.1482 49.9226C45.2691 60.0319 59.5192 69.3656 76.493 77.6125C120.606 99.0453 181.964 112.471 250.078 112.471C318.191 112.471 379.55 99.0453 423.662 77.6125C440.636 69.3656 454.886 60.032 466.007 49.9228C422.68 85.9746 342.201 110.197 250.078 110.197C157.954 110.197 77.4748 85.9745 34.1482 49.9226ZM76.493 85.2004C59.5191 76.9534 45.2691 67.6197 34.148 57.5104C77.4746 93.5623 157.954 117.785 250.078 117.785C342.201 117.785 422.68 93.5625 466.007 57.5107C454.886 67.6199 440.636 76.9535 423.662 85.2004C379.55 106.633 318.191 120.058 250.078 120.058C181.964 120.058 120.606 106.633 76.493 85.2004ZM34.1482 65.0984C45.2692 75.2077 59.5192 84.5413 76.493 92.7882C120.606 114.221 181.964 127.646 250.078 127.646C318.191 127.646 379.55 114.221 423.662 92.7882C440.636 84.5414 454.886 75.2079 466.007 65.0987C422.68 101.15 342.201 125.373 250.078 125.373C157.954 125.373 77.4748 101.15 34.1482 65.0984ZM76.493 100.374C59.5331 92.1338 45.2925 82.8087 34.1755 72.709C77.5086 108.748 157.974 132.961 250.078 132.961C342.182 132.961 422.647 108.748 465.98 72.7089C454.863 82.8087 440.622 92.1338 423.662 100.374C379.55 121.807 318.191 135.232 250.078 135.232C181.964 135.232 120.606 121.807 76.493 100.374ZM34.1216 80.2499C45.2464 90.3685 59.5057 99.7104 76.493 107.964C120.606 129.397 181.964 142.822 250.078 142.822C318.191 142.822 379.55 129.397 423.662 107.964C440.65 99.7104 454.909 90.3686 466.034 80.25C422.714 116.314 342.22 140.547 250.078 140.547C157.935 140.547 77.4418 116.314 34.1216 80.2499ZM76.493 115.55C59.5331 107.31 45.2925 97.9845 34.1755 87.8847C77.5086 123.924 157.973 148.137 250.078 148.137C342.182 148.137 422.647 123.924 465.98 87.8845C454.863 97.9843 440.622 107.309 423.662 115.55C379.55 136.983 318.191 150.408 250.078 150.408C181.964 150.408 120.606 136.983 76.493 115.55ZM34.1486 95.4481C77.4752 131.5 157.954 155.722 250.078 155.722C342.201 155.722 422.681 131.5 466.007 95.4478C454.886 105.557 440.636 114.891 423.662 123.138C379.55 144.57 318.191 157.996 250.078 157.996C181.964 157.996 120.606 144.57 76.493 123.138C59.5194 114.891 45.2695 105.557 34.1486 95.4481ZM423.662 130.725C440.636 122.479 454.886 113.145 466.007 103.036C422.681 139.088 342.201 163.31 250.078 163.31C157.954 163.31 77.4747 139.088 34.1481 103.036C45.2691 113.145 59.5192 122.479 76.493 130.725C120.606 152.158 181.964 165.584 250.078 165.584C318.191 165.584 379.55 152.158 423.662 130.725Z" fill="url(#paint3_linear_2284_19251)"/>
<mask id="mask0_2284_19251" style="mask-type:alpha" maskUnits="userSpaceOnUse" x="0" y="0" width="501" height="426">
<path d="M5.6403 4.76831C3.41332 3.17006 0.267578 4.78184 0.267578 7.52298L0.267596 419.128C0.267597 421.892 3.46074 423.498 5.68154 421.853C23.3318 408.774 80.6475 368.91 125.413 367.43C183.101 365.523 204.302 426.849 262.013 425.966C317.739 425.113 336.686 362.955 393.097 367.43C432.209 370.533 478.446 407.337 494.322 420.947C496.513 422.826 500.001 421.266 500.001 418.38L500.001 8.16687C500.001 5.31667 496.6 3.74132 494.396 5.54934C478.531 18.5684 431.942 54.1364 393.097 57.1497C337.058 61.4969 318.234 1.62781 262.013 0.813619C203.824 -0.0290638 183.577 58.9679 125.413 57.1497C80.2136 55.7368 23.1768 17.3539 5.6403 4.76831Z" fill="#FFFB7C"/>
</mask>
<g mask="url(#mask0_2284_19251)">
<path d="M5.6403 4.76831C3.41332 3.17006 0.267578 4.78184 0.267578 7.52298L0.267596 419.128C0.267597 421.892 3.46074 423.498 5.68154 421.853C23.3318 408.774 80.6475 368.91 125.413 367.43C183.101 365.523 204.302 426.849 262.013 425.966C317.739 425.113 336.686 362.955 393.097 367.43C432.209 370.533 478.446 407.337 494.322 420.947C496.513 422.826 500.001 421.266 500.001 418.38L500.001 8.16687C500.001 5.31667 496.6 3.74132 494.396 5.54934C478.531 18.5684 431.942 54.1364 393.097 57.1497C337.058 61.4969 318.234 1.62781 262.013 0.813619C203.824 -0.0290638 183.577 58.9679 125.413 57.1497C80.2136 55.7368 23.1768 17.3539 5.6403 4.76831Z" fill="#3B70FF"/>
</g>
<defs>
<linearGradient id="paint0_linear_2284_19251" x1="215.721" y1="208.101" x2="51.9592" y2="225.15" gradientUnits="userSpaceOnUse">
<stop stop-color="white"/>
<stop offset="1" stop-color="white" stop-opacity="0"/>
</linearGradient>
<linearGradient id="paint1_linear_2284_19251" x1="292.552" y1="221.387" x2="485.358" y2="201.314" gradientUnits="userSpaceOnUse">
<stop stop-color="#7CA5FF"/>
<stop offset="1" stop-color="white" stop-opacity="0"/>
</linearGradient>
<linearGradient id="paint2_linear_2284_19251" x1="240.708" y1="249.554" x2="251.54" y2="393.295" gradientUnits="userSpaceOnUse">
<stop stop-color="white"/>
<stop offset="1" stop-color="white" stop-opacity="0"/>
</linearGradient>
<linearGradient id="paint3_linear_2284_19251" x1="240.708" y1="177.275" x2="251.739" y2="30.8918" gradientUnits="userSpaceOnUse">
<stop stop-color="white"/>
<stop offset="1" stop-color="white" stop-opacity="0"/>
</linearGradient>
</defs>
</svg>
