<svg width="597" height="402" viewBox="0 0 597 402" fill="none" xmlns="http://www.w3.org/2000/svg">
<g opacity="0.5">
<g style="mix-blend-mode:overlay">
<circle cx="392.953" cy="242.445" r="1.56191" transform="rotate(152.419 392.953 242.445)" fill="white"/>
</g>
<circle cx="360.284" cy="232.197" r="0.78136" transform="rotate(152.419 360.284 232.197)" fill="white"/>
<g style="mix-blend-mode:overlay">
<circle cx="367.058" cy="299.142" r="0.78136" transform="rotate(152.419 367.058 299.142)" fill="white"/>
</g>
<circle cx="258.524" cy="209.558" r="0.78136" transform="rotate(152.419 258.524 209.558)" fill="white"/>
<g style="mix-blend-mode:overlay">
<circle cx="298.626" cy="222.108" r="0.78136" transform="rotate(152.419 298.626 222.108)" fill="white"/>
</g>
<g style="mix-blend-mode:overlay">
<circle cx="326.003" cy="249.217" r="1.56191" transform="rotate(152.419 326.003 249.217)" fill="white"/>
</g>
<circle cx="345.041" cy="278.903" r="1.56191" transform="rotate(152.419 345.041 278.903)" fill="white"/>
<g style="mix-blend-mode:overlay">
<circle cx="266.577" cy="246.783" r="1.56191" transform="rotate(152.419 266.577 246.783)" fill="white"/>
</g>
<g style="mix-blend-mode:overlay">
<circle cx="342.926" cy="198.97" r="0.78136" transform="rotate(152.419 342.926 198.97)" fill="white"/>
</g>
<circle cx="312.594" cy="221.861" r="0.78136" transform="rotate(152.419 312.594 221.861)" fill="white"/>
<circle cx="306.79" cy="263.547" r="0.78136" transform="rotate(152.419 306.79 263.547)" fill="white"/>
<g style="mix-blend-mode:overlay">
<circle cx="352.597" cy="271.454" r="0.78136" transform="rotate(152.419 352.597 271.454)" fill="white"/>
</g>
<g style="mix-blend-mode:overlay">
<circle cx="324.342" cy="175.674" r="1.58352" transform="rotate(-141.01 324.342 175.674)" fill="white"/>
</g>
<g style="mix-blend-mode:overlay">
<circle cx="320.705" cy="141.145" r="0.792172" transform="rotate(-141.01 320.705 141.145)" fill="white"/>
</g>
<g style="mix-blend-mode:overlay">
<circle cx="261.157" cy="174.442" r="0.792172" transform="rotate(-141.01 261.157 174.442)" fill="white"/>
</g>
<g style="mix-blend-mode:overlay">
<circle cx="243.81" cy="95.2037" r="0.792172" transform="rotate(-141.01 243.81 95.2037)" fill="white"/>
</g>
<circle cx="305.229" cy="79.7262" r="0.792172" transform="rotate(-141.01 305.229 79.7262)" fill="white"/>
<g style="mix-blend-mode:overlay">
<circle cx="291.051" cy="116.125" r="1.58352" transform="rotate(-141.01 291.051 116.125)" fill="white"/>
</g>
<g style="mix-blend-mode:overlay">
<circle cx="229.629" cy="131.602" r="1.58352" transform="rotate(-141.01 229.629 131.602)" fill="white"/>
</g>
<circle cx="269.361" cy="59.8632" r="1.58352" transform="rotate(-141.01 269.361 59.8632)" fill="white"/>
<circle cx="344.615" cy="111.611" r="0.792172" transform="rotate(-141.01 344.615 111.611)" fill="white"/>
<circle cx="311.093" cy="92.6227" r="0.792172" transform="rotate(-141.01 311.093 92.6227)" fill="white"/>
<g style="mix-blend-mode:overlay">
<circle cx="239.593" cy="140.685" r="0.792172" transform="rotate(-141.01 239.593 140.685)" fill="white"/>
</g>
<g style="mix-blend-mode:overlay">
<circle cx="281.086" cy="149.826" r="0.792172" transform="rotate(-141.01 281.086 149.826)" fill="white"/>
</g>
<circle cx="269.784" cy="11.2595" r="0.864468" transform="rotate(157.413 269.784 11.2595)" fill="white"/>
<circle cx="204.737" cy="28.6034" r="1.72804" transform="rotate(157.413 204.737 28.6034)" fill="white"/>
<circle cx="226.184" cy="14.4255" r="0.864468" transform="rotate(157.413 226.184 14.4255)" fill="white"/>
<g style="mix-blend-mode:overlay">
<circle cx="466.994" cy="54.9433" r="1.91555" transform="rotate(98.542 466.994 54.9433)" fill="white"/>
</g>
<g style="mix-blend-mode:overlay">
<circle cx="433.222" cy="79.8908" r="0.958272" transform="rotate(98.542 433.222 79.8908)" fill="white"/>
</g>
<g style="mix-blend-mode:overlay">
<circle cx="504.439" cy="121.585" r="0.958272" transform="rotate(98.542 504.439 121.585)" fill="white"/>
</g>
<g style="mix-blend-mode:overlay">
<circle cx="432.441" cy="188.251" r="0.958272" transform="rotate(98.542 432.441 188.251)" fill="white"/>
</g>
<g style="mix-blend-mode:overlay">
<circle cx="378.653" cy="133.683" r="0.958272" transform="rotate(98.542 378.653 133.683)" fill="white"/>
</g>
<g style="mix-blend-mode:overlay">
<circle cx="425.303" cy="126.16" r="1.91555" transform="rotate(98.542 425.303 126.16)" fill="white"/>
</g>
<circle cx="462.527" cy="202.097" r="1.91555" transform="rotate(98.542 462.527 202.097)" fill="white"/>
<g style="mix-blend-mode:overlay">
<circle cx="397.814" cy="161.162" r="1.91555" transform="rotate(98.542 397.814 161.162)" fill="white"/>
</g>
<g style="mix-blend-mode:overlay">
<circle cx="387.758" cy="73.066" r="0.958272" transform="rotate(98.542 387.758 73.066)" fill="white"/>
</g>
<g style="mix-blend-mode:overlay">
<circle cx="388.506" cy="119.665" r="0.958272" transform="rotate(98.542 388.506 119.665)" fill="white"/>
</g>
<circle cx="454.103" cy="152.154" r="0.958272" transform="rotate(98.542 454.103 152.154)" fill="white"/>
<g style="mix-blend-mode:overlay">
<circle cx="466.557" cy="115.894" r="0.958272" transform="rotate(98.542 466.557 115.894)" fill="white"/>
</g>
</g>
<g opacity="0.5">
<g style="mix-blend-mode:overlay">
<circle cx="392.953" cy="242.445" r="1.56191" transform="rotate(152.419 392.953 242.445)" fill="white"/>
</g>
<circle cx="360.284" cy="232.197" r="0.78136" transform="rotate(152.419 360.284 232.197)" fill="white"/>
<g style="mix-blend-mode:overlay">
<circle cx="367.058" cy="299.142" r="0.78136" transform="rotate(152.419 367.058 299.142)" fill="white"/>
</g>
<circle cx="258.524" cy="209.558" r="0.78136" transform="rotate(152.419 258.524 209.558)" fill="white"/>
<g style="mix-blend-mode:overlay">
<circle cx="298.626" cy="222.108" r="0.78136" transform="rotate(152.419 298.626 222.108)" fill="white"/>
</g>
<g style="mix-blend-mode:overlay">
<circle cx="326.003" cy="249.218" r="1.56191" transform="rotate(152.419 326.003 249.218)" fill="white"/>
</g>
<circle cx="345.041" cy="278.903" r="1.56191" transform="rotate(152.419 345.041 278.903)" fill="white"/>
<g style="mix-blend-mode:overlay">
<circle cx="266.577" cy="246.783" r="1.56191" transform="rotate(152.419 266.577 246.783)" fill="white"/>
</g>
<g style="mix-blend-mode:overlay">
<circle cx="342.926" cy="198.97" r="0.78136" transform="rotate(152.419 342.926 198.97)" fill="white"/>
</g>
<circle cx="312.594" cy="221.861" r="0.78136" transform="rotate(152.419 312.594 221.861)" fill="white"/>
<circle cx="306.79" cy="263.547" r="0.78136" transform="rotate(152.419 306.79 263.547)" fill="white"/>
<g style="mix-blend-mode:overlay">
<circle cx="352.597" cy="271.454" r="0.78136" transform="rotate(152.419 352.597 271.454)" fill="white"/>
</g>
<g style="mix-blend-mode:overlay">
<circle cx="324.342" cy="175.674" r="1.58352" transform="rotate(-141.01 324.342 175.674)" fill="white"/>
</g>
<g style="mix-blend-mode:overlay">
<circle cx="320.705" cy="141.145" r="0.792172" transform="rotate(-141.01 320.705 141.145)" fill="white"/>
</g>
<g style="mix-blend-mode:overlay">
<circle cx="261.157" cy="174.442" r="0.792172" transform="rotate(-141.01 261.157 174.442)" fill="white"/>
</g>
<g style="mix-blend-mode:overlay">
<circle cx="243.81" cy="95.2037" r="0.792172" transform="rotate(-141.01 243.81 95.2037)" fill="white"/>
</g>
<circle cx="305.229" cy="79.7262" r="0.792172" transform="rotate(-141.01 305.229 79.7262)" fill="white"/>
<g style="mix-blend-mode:overlay">
<circle cx="291.051" cy="116.125" r="1.58352" transform="rotate(-141.01 291.051 116.125)" fill="white"/>
</g>
<g style="mix-blend-mode:overlay">
<circle cx="229.629" cy="131.602" r="1.58352" transform="rotate(-141.01 229.629 131.602)" fill="white"/>
</g>
<circle cx="269.361" cy="59.8632" r="1.58352" transform="rotate(-141.01 269.361 59.8632)" fill="white"/>
<circle cx="344.615" cy="111.612" r="0.792172" transform="rotate(-141.01 344.615 111.612)" fill="white"/>
<circle cx="311.093" cy="92.6227" r="0.792172" transform="rotate(-141.01 311.093 92.6227)" fill="white"/>
<g style="mix-blend-mode:overlay">
<circle cx="239.593" cy="140.685" r="0.792172" transform="rotate(-141.01 239.593 140.685)" fill="white"/>
</g>
<g style="mix-blend-mode:overlay">
<circle cx="281.086" cy="149.826" r="0.792172" transform="rotate(-141.01 281.086 149.826)" fill="white"/>
</g>
<circle cx="269.784" cy="11.26" r="0.864468" transform="rotate(157.413 269.784 11.26)" fill="white"/>
<circle cx="204.737" cy="28.6039" r="1.72804" transform="rotate(157.413 204.737 28.6039)" fill="white"/>
<circle cx="226.184" cy="14.4255" r="0.864468" transform="rotate(157.413 226.184 14.4255)" fill="white"/>
<g style="mix-blend-mode:overlay">
<circle cx="466.994" cy="54.9438" r="1.91555" transform="rotate(98.542 466.994 54.9438)" fill="white"/>
</g>
<g style="mix-blend-mode:overlay">
<circle cx="433.222" cy="79.8912" r="0.958272" transform="rotate(98.542 433.222 79.8912)" fill="white"/>
</g>
<g style="mix-blend-mode:overlay">
<circle cx="504.439" cy="121.585" r="0.958272" transform="rotate(98.542 504.439 121.585)" fill="white"/>
</g>
<g style="mix-blend-mode:overlay">
<circle cx="432.441" cy="188.251" r="0.958272" transform="rotate(98.542 432.441 188.251)" fill="white"/>
</g>
<g style="mix-blend-mode:overlay">
<circle cx="378.653" cy="133.683" r="0.958272" transform="rotate(98.542 378.653 133.683)" fill="white"/>
</g>
<g style="mix-blend-mode:overlay">
<circle cx="425.303" cy="126.16" r="1.91555" transform="rotate(98.542 425.303 126.16)" fill="white"/>
</g>
<circle cx="462.527" cy="202.097" r="1.91555" transform="rotate(98.542 462.527 202.097)" fill="white"/>
<g style="mix-blend-mode:overlay">
<circle cx="397.814" cy="161.162" r="1.91555" transform="rotate(98.542 397.814 161.162)" fill="white"/>
</g>
<g style="mix-blend-mode:overlay">
<circle cx="387.758" cy="73.0665" r="0.958272" transform="rotate(98.542 387.758 73.0665)" fill="white"/>
</g>
<g style="mix-blend-mode:overlay">
<circle cx="388.506" cy="119.665" r="0.958272" transform="rotate(98.542 388.506 119.665)" fill="white"/>
</g>
<circle cx="454.103" cy="152.154" r="0.958272" transform="rotate(98.542 454.103 152.154)" fill="white"/>
<g style="mix-blend-mode:overlay">
<circle cx="466.557" cy="115.894" r="0.958272" transform="rotate(98.542 466.557 115.894)" fill="white"/>
</g>
</g>
</svg>
